<?xml version="1.0" encoding="UTF-8"?>
<svg width="988px" height="782px" viewBox="0 0 988 782" version="1.1" xmlns="http://www.w3.org/2000/svg" xmlns:xlink="http://www.w3.org/1999/xlink">
    <!-- Generator: Sketch 61.2 (89653) - https://sketch.com -->
    <title>hero</title>
    <desc>Created with Sketch.</desc>
    <defs>
        <linearGradient x1="-47.4440552%" y1="50.01638%" x2="99.9640839%" y2="49.9967608%" id="linearGradient-1">
            <stop stop-color="#ACA1E2" offset="0%"></stop>
            <stop stop-color="#F3EFFD" offset="100%"></stop>
        </linearGradient>
        <linearGradient x1="37.690428%" y1="-3504.20173%" x2="47.8803477%" y2="-575.070757%" id="linearGradient-2">
            <stop stop-color="#B2DBE1" offset="0%"></stop>
            <stop stop-color="#B7E1E6" offset="32.2%"></stop>
            <stop stop-color="#C5F2F4" offset="75.7%"></stop>
            <stop stop-color="#D0FFFF" offset="100%"></stop>
        </linearGradient>
        <linearGradient x1="38.8272155%" y1="-3177.35865%" x2="49.0171351%" y2="-248.328243%" id="linearGradient-3">
            <stop stop-color="#B2DBE1" offset="0%"></stop>
            <stop stop-color="#B7E1E6" offset="32.2%"></stop>
            <stop stop-color="#C5F2F4" offset="75.7%"></stop>
            <stop stop-color="#D0FFFF" offset="100%"></stop>
        </linearGradient>
        <linearGradient x1="38.2622863%" y1="-3338.38617%" x2="48.4566896%" y2="-409.255195%" id="linearGradient-4">
            <stop stop-color="#B2DBE1" offset="0%"></stop>
            <stop stop-color="#B7E1E6" offset="32.2%"></stop>
            <stop stop-color="#C5F2F4" offset="75.7%"></stop>
            <stop stop-color="#D0FFFF" offset="100%"></stop>
        </linearGradient>
        <linearGradient x1="21.0403187%" y1="54.8289883%" x2="79.1886167%" y2="44.818761%" id="linearGradient-5">
            <stop stop-color="#ABA0E1" offset="0%"></stop>
            <stop stop-color="#DAD6EB" offset="100%"></stop>
        </linearGradient>
        <linearGradient x1="6.94226689%" y1="61.2639325%" x2="128.801753%" y2="39.7432576%" id="linearGradient-6">
            <stop stop-color="#AA9FE0" offset="0%"></stop>
            <stop stop-color="#FFFFFF" offset="100%"></stop>
        </linearGradient>
        <linearGradient x1="-4.91311222%" y1="50.0356789%" x2="100.162015%" y2="50.0356789%" id="linearGradient-7">
            <stop stop-color="#7763CD" offset="0%"></stop>
            <stop stop-color="#8673D6" offset="2.4%"></stop>
            <stop stop-color="#7B68D0" offset="18.4%"></stop>
            <stop stop-color="#B9AFE7" offset="100%"></stop>
        </linearGradient>
        <linearGradient x1="-5.04689145%" y1="50.0766984%" x2="99.9805645%" y2="50.0766984%" id="linearGradient-8">
            <stop stop-color="#7763CD" offset="0%"></stop>
            <stop stop-color="#8673D6" offset="2.4%"></stop>
            <stop stop-color="#7B68D0" offset="18.4%"></stop>
            <stop stop-color="#B9AFE7" offset="100%"></stop>
        </linearGradient>
        <linearGradient x1="-5.06750012%" y1="49.9648506%" x2="100.062194%" y2="49.9648506%" id="linearGradient-9">
            <stop stop-color="#7763CD" offset="0%"></stop>
            <stop stop-color="#8673D6" offset="2.4%"></stop>
            <stop stop-color="#7B68D0" offset="18.4%"></stop>
            <stop stop-color="#B9AFE7" offset="100%"></stop>
        </linearGradient>
        <linearGradient x1="23.885087%" y1="94.9638182%" x2="78.7565636%" y2="0.576468393%" id="linearGradient-10">
            <stop stop-color="#1C225C" offset="0%"></stop>
            <stop stop-color="#B4AAE6" offset="2.4%"></stop>
            <stop stop-color="#A598DD" offset="100%"></stop>
        </linearGradient>
        <linearGradient x1="-4.99899317%" y1="49.5923721%" x2="100.047923%" y2="49.5923721%" id="linearGradient-11">
            <stop stop-color="#7763CD" offset="0%"></stop>
            <stop stop-color="#8673D6" offset="2.4%"></stop>
            <stop stop-color="#7B68D0" offset="18.4%"></stop>
            <stop stop-color="#B9AFE7" offset="100%"></stop>
        </linearGradient>
        <linearGradient x1="-4.75915299%" y1="50.4657696%" x2="100.185243%" y2="50.4657696%" id="linearGradient-12">
            <stop stop-color="#7763CD" offset="0%"></stop>
            <stop stop-color="#8673D6" offset="2.4%"></stop>
            <stop stop-color="#7B68D0" offset="18.4%"></stop>
            <stop stop-color="#B9AFE7" offset="100%"></stop>
        </linearGradient>
        <linearGradient x1="-3.84205627%" y1="50.817518%" x2="100.666499%" y2="49.0813073%" id="linearGradient-13">
            <stop stop-color="#7763CD" offset="0%"></stop>
            <stop stop-color="#8673D6" offset="2.4%"></stop>
            <stop stop-color="#7B68D0" offset="18.4%"></stop>
            <stop stop-color="#B9AFE7" offset="100%"></stop>
        </linearGradient>
        <linearGradient x1="-4.74401706%" y1="51.2753612%" x2="99.7645378%" y2="49.5391504%" id="linearGradient-14">
            <stop stop-color="#7763CD" offset="0%"></stop>
            <stop stop-color="#8673D6" offset="2.4%"></stop>
            <stop stop-color="#7B68D0" offset="18.4%"></stop>
            <stop stop-color="#B9AFE7" offset="100%"></stop>
        </linearGradient>
        <linearGradient x1="-5.99218493%" y1="49.9193739%" x2="99.3922019%" y2="49.9193739%" id="linearGradient-15">
            <stop stop-color="#7763CD" offset="0%"></stop>
            <stop stop-color="#8673D6" offset="2.4%"></stop>
            <stop stop-color="#7B68D0" offset="18.4%"></stop>
            <stop stop-color="#B9AFE7" offset="100%"></stop>
        </linearGradient>
        <linearGradient x1="-5.45292601%" y1="50.1347067%" x2="99.9330768%" y2="50.1347067%" id="linearGradient-16">
            <stop stop-color="#7763CD" offset="0%"></stop>
            <stop stop-color="#8673D6" offset="2.4%"></stop>
            <stop stop-color="#7B68D0" offset="18.4%"></stop>
            <stop stop-color="#B9AFE7" offset="100%"></stop>
        </linearGradient>
        <linearGradient x1="-4.9492344%" y1="49.3434321%" x2="100.097266%" y2="49.3434321%" id="linearGradient-17">
            <stop stop-color="#7763CD" offset="0%"></stop>
            <stop stop-color="#8673D6" offset="2.4%"></stop>
            <stop stop-color="#7B68D0" offset="18.4%"></stop>
            <stop stop-color="#B9AFE7" offset="100%"></stop>
        </linearGradient>
        <linearGradient x1="-5.93134712%" y1="49.9919104%" x2="119.167%" y2="49.9919104%" id="linearGradient-18">
            <stop stop-color="#7763CD" offset="0%"></stop>
            <stop stop-color="#8673D6" offset="2.4%"></stop>
            <stop stop-color="#7B68D0" offset="18.4%"></stop>
            <stop stop-color="#B9AFE7" offset="100%"></stop>
        </linearGradient>
    </defs>
    <g id="Page-1" stroke="none" stroke-width="1" fill="none" fill-rule="evenodd">
        <g id="hero" transform="translate(-44.000000, -104.000000)">
            <rect id="Rectangle" x="0" y="0" width="1032" height="950"></rect>
            <path d="M46.3,195.8 C133.9,298.8 247.5,236.9 296.4,363.9 C346.8,495.1 34.2,633.5 360.3,854.7 C493.3,944.9 548,962.2 733.5,896.3 C867,848.7 961.5,762.6 1032.1,844.3 L1032.1,0.4 L13.7,0 C13.7,0 -31.9,103.6 46.3,195.8 Z" id="header_base_1_" opacity="0.35" fill-rule="nonzero"></path>
            <g id="Group_1250_1_" transform="translate(306.933000, 362.973000)" fill-rule="nonzero">
                <g id="Group_1246_1_">
                    <path d="M47.9,106.7 C47.1,106.8 46.5,107.4 46.4,108.2 L46.4,185.2 L49.4,185.2 L49.4,108.2 C49.5,107.5 48.9,106.8 48.2,106.7 C48.1,106.7 48,106.7 47.9,106.7 Z" id="Path_2025_1_" fill="#F2F0FA"></path>
                    <path d="M56.8,106.7 C56,106.8 55.4,107.4 55.3,108.2 L55.3,185.2 L57.9,185.2 L57.9,108.2 C57.9,107.4 57.6,106.7 56.8,106.7 Z" id="Path_2026_1_" fill="#F2F0FA"></path>
                    <path d="M725.1,148.7 L687.1,148.7 L687.1,79.5 C687,78.7 686.4,78.1 685.6,78 L657.7,78 C656.9,78.1 656.3,78.7 656.2,79.5 L656.2,148.7 L618.6,148.7 L615.6,94 C615.2,86.6 618.2,79.5 623.8,75.4 C626.9,73.1 630.5,71.3 634.2,70.2 L643.9,66.9 L644.6,66.9 L644.6,65.4 L644.6,65.4 L644.6,64.7 L644.6,64.7 L644.6,63.2 L644,63.2 L634.3,59.9 C620.9,55.4 612,45 611.2,33.1 C611.2,32.3 610.5,31.6 609.7,31.6 C608.9,31.6 608.2,32.3 608.2,33.1 C607.8,45 598.5,55.4 585.1,59.9 L575.4,63.2 L574.7,63.2 L574.7,64.7 L574.7,64.7 L574.7,65.4 L574.7,65.4 L574.7,66.9 L575.4,66.9 L585.1,70.2 C588.8,71.3 592.4,73.1 595.5,75.4 C601.1,79.5 604.1,86.6 603.7,94 L599.6,166.6 L560.5,166.6 L560.5,57.9 C560.4,57.1 559.8,56.5 559,56.4 L548,56.4 C547.3,56.4 546.9,56.8 546.5,57.5 L521.9,166.1 L510.7,166.1 L506.2,130.4 C506.1,129.6 505.5,129 504.7,128.9 L449,128.9 C448.6,128.9 448.3,129.3 447.9,129.3 C447.6,129.6 447.5,130 447.5,130.4 L452.3,167.6 L442.3,167.6 L442.3,59.4 L429.6,59.4 L429.6,21.1 C429.6,20.3 428.9,19.6 428.1,19.6 C427.3,19.6 426.6,20.3 426.6,21.1 L426.6,59.4 L414.7,59.4 L414.7,153.5 L406.5,153.5 L406.5,84.3 L391.6,84.3 L391.6,160.2 L378.6,160.2 L378.6,142.3 L304.6,142.3 L304.6,160.2 L276.3,160.2 L276.3,120 C276.4,115.1 274.6,110.3 271.5,106.6 C268.5,103.1 264.2,101 259.6,101 C250.3,101 242.5,109.6 242.5,120 L242.5,160.2 L232.5,160.2 L232.5,35.2 L220.6,35.2 L220.6,0.6 L171.5,0.6 L171.5,35.2 L157.4,35.2 L157.4,48.2 L116,48.2 L116,160.2 L76.2,160.2 L76.2,98.4 L49.8,68.6 L23.4,98.4 L23.4,160.2 L0.7,160.2 L0.7,178.4 L3.3,178.4 L3.3,163.1 L26,163.1 L26,99.5 L49.8,72.7 L73.6,99.5 L73.6,162.8 L119,162.8 L119,51.2 L160.3,51.2 L160.3,38.2 L174.4,38.2 L174.4,3.6 L217.6,3.6 L217.6,38.2 L229.5,38.2 L229.5,163.2 L245.1,163.2 L245.1,120 C245.1,111.1 251.4,104 259.2,104 C263.1,103.9 266.8,105.7 269.2,108.8 C271.9,112 273.4,116.1 273.3,120.3 L273.3,163.5 L307.2,163.5 L307.2,145.6 L375.7,145.6 L375.7,163.5 L393.9,163.5 L393.9,87.2 L403.6,87.2 L403.6,156.4 L417.7,156.4 L417.7,62.6 L439.7,62.6 L439.7,169.8 C439.8,170.6 440.4,171.2 441.2,171.3 L453.9,171.3 C454.3,171.3 454.6,170.9 455,170.9 C455.3,170.6 455.4,170.2 455.4,169.8 L450.6,132.6 L455.8,132.6 L461.8,185.8 L464.4,185.8 L461.1,157.5 L467.4,157.5 L470.7,185.8 L473.3,185.8 L470,157.5 L477.1,157.5 L480.4,185.8 L483,185.8 L478.5,147.5 L486.7,147.5 L491.2,185.8 L493.8,185.8 L489.3,147.5 L496,147.5 L500.5,185.8 L503.1,185.8 L498.6,147.5 L499.7,147.5 C500.5,147.5 501.2,146.8 501.2,146 C501.2,145.2 500.5,144.5 499.7,144.5 L499.7,144.5 L498.2,132.6 L503.4,132.6 L507.9,168.3 C508,169.1 508.6,169.7 509.4,169.8 L520.9,169.8 L517.2,185.8 L520.2,185.8 L521.7,178.4 L541.4,178.4 C542.2,178.4 542.9,177.7 542.9,176.9 C542.9,176.1 542.2,175.4 541.4,175.4 L522.4,175.4 L525,163.5 L544.7,163.5 C545.5,163.5 546.2,162.8 546.2,162 C546.2,161.2 545.5,160.5 544.7,160.5 L525.7,160.5 L528.3,149.7 L547.3,149.7 C548.1,149.7 548.8,149 548.8,148.2 C548.8,147.4 548.1,146.7 547.3,146.7 L529.4,146.7 L540.2,98.7 L553.6,98.7 C554.4,98.7 555.1,98 555.1,97.2 C555.1,96.4 554.4,95.7 553.6,95.7 L553.6,95.7 L540.6,95.7 L542.5,87.5 L553.7,87.5 C554.5,87.5 555.2,86.8 555.2,86 C555.2,85.2 554.5,84.5 553.7,84.5 L553.7,84.5 L543.3,84.5 L544.8,77.1 L553.4,77.1 C554.2,77.1 554.9,76.4 554.9,75.6 C554.9,74.8 554.2,74.1 553.4,74.1 L545.6,74.1 L548.9,59.2 L558.6,59.2 L558.6,185.3 L561.2,185.3 L561.2,169.7 L600,169.7 L599.3,185.3 L601.9,185.3 L606.7,94.1 C607.1,85.5 603.7,77.4 597.4,72.9 C594.1,70.3 590.3,68.4 586.2,67.3 L585.5,66.9 L633.9,66.9 L633.2,67.3 C629.3,68.7 625.5,70.6 622,72.9 C615.7,77.4 612,85.6 612.7,94.1 L617.5,185.3 L620.1,185.3 L618.2,151.4 L655.8,151.4 L655.8,185.3 L658.4,185.3 L658.4,81 L683.7,81 L683.7,185.6 L686.3,185.6 L686.3,151.7 L724.3,151.7 L724.3,148.7 L725.1,148.7 L725.1,148.7 Z M458.7,132.4 L465,132.4 L466.5,144.3 L460.2,144.3 L458.7,132.4 Z M460.9,153.9 L460.2,146.8 L466.5,146.8 L467.2,153.9 L460.9,153.9 Z M467.6,132.4 L474.7,132.4 L476.2,144.3 L469.1,144.3 L467.6,132.4 Z M470.2,153.9 L469.5,146.8 L476.6,146.8 L477.3,153.9 L470.2,153.9 Z M479.1,144.3 L477.6,132.4 L485.8,132.4 L487.3,144.3 L479.1,144.3 Z M489.9,144.3 L488.4,132.4 L495.1,132.4 L496.6,144.3 L489.9,144.3 Z M585.9,63.9 L586.6,63.5 C598.1,59.8 607.1,51.2 610,41.2 C613.3,51.2 621.9,59.4 633.4,63.5 L634.1,63.9 L585.9,63.9 Z" id="Path_2027_1_" fill="url(#linearGradient-1)"></path>
                    <path d="M39,106.7 C38.2,106.8 37.6,107.4 37.5,108.2 L37.5,185.2 L40.1,185.2 L40.1,108.2 C40.1,107.4 39.7,106.7 39,106.7 Z" id="Path_2028_1_" fill="#F2F0FA"></path>
                </g>
                <g id="Group_1247_1_" transform="translate(375.429000, 249.667000)" fill="url(#linearGradient-2)">
                    <rect id="Rectangle_369_1_" x="0.6" y="0.6" width="1.5" height="7.4"></rect>
                </g>
                <g id="Group_1248_1_" transform="translate(375.429000, 225.481000)" fill="url(#linearGradient-3)">
                    <rect id="Rectangle_370_1_" x="0.6" y="0.6" width="1.5" height="7.4"></rect>
                </g>
                <g id="Group_1249_1_" transform="translate(375.429000, 237.388000)" fill="url(#linearGradient-4)">
                    <rect id="Rectangle_371_1_" x="0.6" y="0.6" width="1.5" height="7.4"></rect>
                </g>
            </g>
            <path d="M518.6,308.1 C518.6,298.4 510.7,290.5 501,290.5 C491.3,290.5 483.4,298.4 483.4,308.1 C483.4,311.2 484.2,314.2 485.7,316.9 L485.7,316.9 L493.1,329.7 L501.1,343.3 L509.1,329.7 L516.5,316.6 C517.8,314 518.6,311.1 518.6,308.1 Z" id="Path_2037_1_" fill="url(#linearGradient-5)" fill-rule="nonzero"></path>
            <circle id="Ellipse_55_1_" fill="#FFFFFF" fill-rule="nonzero" cx="501" cy="310.1" r="9.9"></circle>
            <g id="Group_1251_1_" transform="translate(290.543000, 326.106000)" fill="url(#linearGradient-6)" fill-rule="nonzero">
                <path d="M26,28.3 C24.3,28.3 22.6,29 21.4,30.3 L12.3,22.7 C12.9,21.8 13.2,20.7 13.3,19.7 C13.3,18.9 13.1,18.1 12.8,17.4 L22.5,11.3 C23.7,12.6 25.3,13.3 27.1,13.3 C30.6,13.3 33.5,10.5 33.5,6.9 C33.5,3.3 30.7,0.5 27.1,0.5 C23.5,0.5 20.7,3.3 20.7,6.9 L20.7,6.9 C20.7,7.7 20.9,8.5 21.2,9.2 L11.5,15.3 C10.3,14 8.7,13.3 6.9,13.3 C3.4,13.3 0.5,16.1 0.5,19.6 C0.5,23.1 3.3,26 6.8,26 C8.3,26 9.8,25.5 11,24.5 L20.4,32.1 C20.1,32.8 19.9,33.6 19.9,34.4 C19.9,37.9 22.7,40.8 26.3,40.8 C29.9,40.8 32.7,38 32.7,34.4 L32.7,34.4 C32.4,31 29.5,28.3 26,28.3 Z" id="Path_2038_1_"></path>
            </g>
            <g id="Group_1920_1_" transform="translate(43.000000, 404.854000)" fill-rule="nonzero">
                <g id="Group_1252_1_" transform="translate(0.605000, 0.521000)">
                    <path d="M189.9,159.5 C198.1,156.6 205.3,151.8 213.5,148.4 C217.4,147 221.7,146 225.6,147.4 C229.9,149.3 231.4,154.6 229.9,159 C228.5,163.3 224.6,166.2 221.2,169.6 C215.4,174.4 209.6,179.3 202.9,182.6 C196.1,186 187.5,187.9 179.7,185.5 C173.4,184.1 162.3,170.5 163.8,165.2 C164.8,161.8 169.6,161.3 173,161.3 C178.8,161.4 184.1,161.4 189.9,159.5 Z" id="Path_2039_1_" fill="url(#linearGradient-7)"></path>
                    <path d="M109.8,257.4 L93.4,342.3 C86.7,361.2 75.1,377.8 59.6,390.6 L21,422 C22.8,425.3 23.8,428.9 23.9,432.6 C23.9,437.9 22.5,443.2 23.9,448 C24.6,450.1 25.5,452 26.8,453.8 L92.4,403.1 C105.5,393.1 116,380.2 123.3,365.5 L159,294.1 L109.8,257.4 Z" id="Path_2040_1_" fill="#998BDA"></path>
                    <path d="M160.5,103.5 C160,95.8 167.7,83.7 175.9,85.2 C180.2,85.7 184.1,88.6 188.4,85.7 C191.8,83.3 192.7,78.9 193.2,75.1 C193.7,69.8 192.2,64.5 194.2,60.1 C194.9,58.5 195.6,56.9 196.1,55.3 C196.6,53.4 196.1,51.4 194.7,51 C193.3,50 191.3,51 189.9,50.5 C186.5,49.5 186.5,40.4 186,37 C181.7,15.3 156.1,26.4 151.3,38.4 C147.4,47.1 143.6,60.6 146,72.7 C146.5,76.1 141.2,89.6 136.8,93 C134.4,94.9 131.5,97.3 131,100.2 C140.2,101.6 150.3,102.5 160.5,103.5 Z" id="Path_2041_1_" fill="#B8AFE7"></path>
                    <path d="M238.2,445.6 L255.1,440.8 L244.5,361.2 C242.6,348.4 238.7,336 232.9,324.5 L192.8,245.8 L113.7,262.2 L183.7,326.4 C201.2,341 214,360.5 220.4,382.4 L238.2,445.6 Z" id="Path_2042_1_" fill="#B8AEE8"></path>
                    <path d="M256.5,447.6 C260.4,445.2 262.8,440.8 265.2,437.5 C268.1,433.6 271.5,430.3 276.3,430.3 C282.1,430.3 286.9,436.1 286.9,442.4 C286.4,448.2 282.6,453.5 277.7,456.9 C272.8,460.3 267.1,462.2 261.3,464.1 C257.4,465.5 251.6,468 247.8,468.4 C243.6,468.7 239.5,466.7 237.2,463.1 C230.9,450.5 251.2,450.5 256.5,447.6 Z" id="Path_2043_1_" fill="#6A54C9"></path>
                    <path d="M17.6,449 C18.1,453.3 21.5,457.2 23.4,461.1 C25.8,465 27.7,469.8 25.8,474.1 C23.9,479.9 16.1,481.8 10.8,479.4 C5.5,477 2.1,471.2 1.1,465.4 C0.1,459.6 0.6,453.3 0.6,447.5 C0.6,443.6 0.6,439.8 2,435.9 C3,432 7.3,425.8 11.2,425.8 C24.4,424.4 16.7,442.8 17.6,449 Z" id="Path_2044_1_" fill="#7C68D2"></path>
                    <path d="M147.5,62.9 C147,58.1 146.5,52.3 150.4,48.4 C153.3,45.5 158.6,44.5 160.5,40.7 C161.9,38.3 161.5,35.4 162.9,32.5 C165.3,27.7 172.6,27.7 177.9,26.7 C184.7,25.7 190.9,21.4 192.9,15.1 C194.8,8.8 190.5,1.1 183.7,0.6 C179.4,0.1 175.5,2.5 171.6,4 C165.3,5.9 159.1,5.9 152.8,6.9 C146.5,7.9 139.8,10.8 136.9,16.1 C134.5,20.9 135.5,26.7 133.5,32 C131.1,36.8 125.8,40.2 124.3,45.5 C122.9,51.3 126.7,57.1 131.1,61.4 C134,63.8 139.8,71.1 143.2,72 C148.4,73.6 147.5,66.3 147.5,62.9 Z" id="Path_2045_1_" fill="url(#linearGradient-8)"></path>
                    <path d="M178.8,164.3 C176.4,153.7 179.3,145 180.7,134.9 C183.1,117.5 183.1,99.2 168.2,96.3 C153.3,93.4 147.4,91 132.5,93.4 C110.8,96.8 98.2,149.4 100.2,157.1 C102.1,164.3 105,203.9 96.3,223.2 C91,235.3 79.4,257.5 96.3,264.2 C117.1,272.9 144.1,271 174,258.9 C182.2,255.5 190.9,249.7 195.7,243 C212.1,220.3 182.2,179.3 178.8,164.3 Z" id="Path_2046_1_" fill="#806ED3"></path>
                    <path d="M169.2,112.2 C162,102.1 148.4,109.8 142.7,115.6 C135,123.3 117.1,130.1 98.8,141.2 C58.7,164.4 46.2,224.2 60.2,228.1 C66.5,229.5 74.2,227.6 76.1,220.4 C79,209.3 79,199.2 85.3,189.5 C92.1,179.4 102.2,167.8 113.3,163 C131.2,154.8 163.5,139.4 170.7,125.8 C172.6,121.3 171.6,116 169.2,112.2 Z" id="Path_2047_1_" fill="url(#linearGradient-9)"></path>
                    <path d="M40.8,269 C40.3,270.4 39.8,271.9 40.3,273.3 C41.3,275.2 44.2,275.7 46.1,275.7 C53.9,274.6 60.2,268.9 62,261.2 C62.5,258.8 63,256.9 63.4,254.4 C63.9,252.2 65.3,250.3 67.3,249.1 C69.2,248.1 72.1,248.6 73.1,250.5 C73.6,251.5 76.5,251.9 77.4,250 C79.3,245.2 77.9,231.7 72.6,231.2 C67.3,230.7 58.1,231.7 58.1,231.7 C58.1,231.7 43.2,262.3 40.8,269 Z" id="Path_2048_1_" fill="#B8AFE7"></path>
                    <path d="M228,138.7 C230.4,132.9 240.5,118.4 243.9,123.7 C245.8,126.6 238.1,129.5 239.6,132.4 C242.5,137.2 250.7,130.5 255,127.1 C257.9,124.7 260.8,121.3 264.2,121.8 C267.1,122.3 269,125.2 269,128.1 C268.9,131.1 267.5,134 265.1,135.8 C261.8,139 258.2,141.9 254.5,144.5 C250.2,147.4 242.9,152.2 235.7,152.2 C229,152.2 226.1,143.1 228,138.7 Z" id="Path_2049_1_" fill="#B8AFE7"></path>
                </g>
                <g id="Group_1253_1_" transform="translate(235.417000, 108.353000)">
                    <path d="M12.5,46.8 L2.8,40.5 C0.4,39.1 -0.1,35.7 1.4,33.3 L21.2,2.9 C22.6,0.5 26,5.68434189e-14 28.4,1.5 L38.1,7.8 C40.5,9.2 41,12.6 39.5,15 L19.7,45.4 C18.3,47.8 15,48.3 12.5,46.8 Z" id="Path_2050_1_" fill="url(#linearGradient-10)"></path>
                    <path d="M13.5,44.4 L4.8,39.1 C2.9,37.7 1.9,34.8 3.4,32.8 L20.8,5.8 C22.2,3.9 25.1,2.9 27.1,4.4 L35.8,9.7 C37.7,11.1 38.7,14 37.2,16 L19.8,43 C18.3,44.8 15.7,45.4 13.5,44.4 Z" id="Path_2051_1_" fill="#D9D4F1"></path>
                </g>
            </g>
            <path d="M802.2,123.5 L800.5,123.5 C800.4,112.7 791.6,103.9 780.8,104 C775.1,104 769.7,106.5 766,110.8 C764,109.8 761.8,109.3 759.6,109.3 C751.7,109.3 745.2,115.6 744.9,123.6 L743.2,123.6 C737.8,123.6 733.4,128 733.3,133.4 C733.3,133.4 733.3,133.5 733.3,133.5 L733.3,133.5 C733.3,138.9 737.7,143.3 743.1,143.4 C743.1,143.4 743.2,143.4 743.2,143.4 L802.2,143.4 C807.6,143.4 812,139 812.1,133.6 C812.1,133.6 812.1,133.5 812.1,133.5 L812.1,133.5 C812.1,127.9 807.7,123.5 802.2,123.5 C802.2,123.5 802.2,123.5 802.2,123.5 Z" id="Path_2059_1_" fill="url(#linearGradient-11)" fill-rule="nonzero" opacity="0.121"></path>
            <path d="M396.4,303.1 L397.5,303.1 C397.5,296.3 403.1,290.8 409.9,290.8 C413.4,290.8 416.8,292.4 419.1,295 C420.4,294.4 421.7,294 423.1,294 C428.1,294 432.2,298 432.4,303 L433.5,303 C436.9,303 439.7,305.7 439.7,309.1 C439.7,309.1 439.7,309.1 439.7,309.2 L439.7,309.2 C439.7,312.6 437,315.4 433.6,315.4 C433.6,315.4 433.6,315.4 433.5,315.4 L396.4,315.4 C393,315.4 390.2,312.7 390.2,309.3 C390.2,309.3 390.2,309.3 390.2,309.3 L390.2,309.3 C390.1,306 392.7,303.2 396,303.1 C396.2,303.1 396.3,303.1 396.4,303.1 Z" id="Path_2060_1_" fill="url(#linearGradient-12)" fill-rule="nonzero" opacity="0.121"></path>
            <circle id="XMLID_8_" fill="url(#linearGradient-13)" fill-rule="nonzero" opacity="0.148" cx="709.4" cy="244.4" r="5.1"></circle>
            <circle id="XMLID_7_" fill="url(#linearGradient-14)" fill-rule="nonzero" opacity="0.148" cx="366.2" cy="233.2" r="5.1"></circle>
            <path d="M650.3,362.3 L647.7,362.4 L647.6,359.8 C647.6,358.7 646.7,357.9 645.7,357.9 C645.7,357.9 645.7,357.9 645.7,357.9 L645.7,357.9 C644.6,357.9 643.8,358.8 643.8,359.8 C643.8,359.8 643.8,359.8 643.8,359.8 L643.9,362.4 L641.3,362.5 C640.2,362.5 639.3,363.4 639.4,364.5 C639.5,365.6 640.3,366.5 641.4,366.4 C641.4,366.4 641.4,366.4 641.5,366.4 L644.1,366.3 L644.2,368.9 C644.2,370 645.1,370.8 646.1,370.8 C646.1,370.8 646.1,370.8 646.1,370.8 L646.1,370.8 C647.2,370.8 648,369.9 648,368.9 C648,368.9 648,368.9 648,368.9 L647.9,366.3 L650.5,366.2 C651.6,366.2 652.4,365.3 652.4,364.3 C652.4,364.3 652.4,364.3 652.4,364.3 C652.2,363.2 651.4,362.4 650.3,362.3 Z" id="XMLID_6_" fill="url(#linearGradient-15)" fill-rule="nonzero" opacity="0.148"></path>
            <path d="M588,159.5 L585.4,159.6 L585.3,157 C585.3,155.9 584.4,155.1 583.4,155.1 C583.4,155.1 583.4,155.1 583.3,155.1 L583.3,155.1 C582.2,155.1 581.4,156 581.4,157 C581.4,157 581.4,157 581.4,157 L581.5,159.6 L579,159.6 C577.9,159.6 577,160.5 577.1,161.6 C577.1,162.7 578,163.6 579.1,163.5 C579.1,163.5 579.1,163.5 579.2,163.5 L581.8,163.4 L581.9,166 C581.9,167.1 582.8,167.9 583.8,167.9 C583.8,167.9 583.8,167.9 583.8,167.9 L583.8,167.9 C584.9,167.9 585.7,167 585.7,166 C585.7,166 585.7,166 585.7,166 L585.6,163.4 L588.2,163.3 C589.3,163.3 590.1,162.4 590.1,161.4 C590.1,161.4 590.1,161.4 590.1,161.4 C589.9,160.3 589.1,159.5 588,159.5 Z" id="XMLID_5_" fill="url(#linearGradient-16)" fill-rule="nonzero" opacity="0.148"></path>
            <path d="M269.8,183.2 L269.1,183.2 C269.1,178.6 265.4,175 260.8,175 C258.4,175 256.1,176 254.6,177.9 C253.8,177.5 252.8,177.3 251.9,177.3 C248.6,177.3 245.8,180 245.7,183.3 L245,183.3 C242.7,183.3 240.9,185.1 240.8,187.4 C240.8,187.4 240.8,187.4 240.8,187.4 L240.8,187.4 C240.8,189.7 242.6,191.5 244.9,191.6 C244.9,191.6 244.9,191.6 244.9,191.6 L269.8,191.6 C272.1,191.6 273.9,189.8 274,187.5 C274,187.5 274,187.5 274,187.5 L274,187.5 C274,185 272.2,183.2 269.8,183.2 C269.9,183.2 269.9,183.2 269.8,183.2 Z" id="Path_2061_1_" fill="url(#linearGradient-17)" fill-rule="nonzero" opacity="0.121"></path>
            <path d="M999.8,195.8 C990,195.8 980.6,200 974.1,207.3 C970.6,205.6 966.8,204.7 962.9,204.8 C949.1,204.8 937.8,215.6 937.5,229.1 L934.5,229.1 C925.2,229 917.5,236.5 917.4,245.8 C917.4,245.8 917.4,245.9 917.4,245.9 C917.5,255.2 925.1,262.7 934.5,262.7 L1032,262.7 L1032,218.3 C1027.4,205.2 1014.7,195.8 999.8,195.8 Z" id="Path" fill="url(#linearGradient-18)" fill-rule="nonzero" opacity="0.121"></path>

        </g>
    </g>
</svg>